# xmcd
#
# Track frame offsets:
#   150
#   15592
#   30294
#   44159
#   62973
#   74678
#   89604
#   104043
#   117863
#   131295
#   145605
#   157323
#   170585
#   183753
#   196810
#   211644
#   224762
#   240928
#
# Disc length: 3391 seconds
#
# Revision: 0
# Processed by: cddbd v1.5.1PL2 Copyright (c) Steve Scherf et al.
# Submitted via: uFREEDB 1.6.2
#
DISCID=080d3d12
DTITLE=The Top Song 2 - The Top Song 2
DYEAR=1970
DGENRE=UnClassifiable
TTITLE0=Stay a while The beils
TTITLE1=Rain and Tears
TTITLE2=Imagine
TTITLE3=Amazing grace
TTITLE4=If bread
TTITLE5=I don't know how to love
TTITLE6=Love story
TTITLE7=Love theme from The Godfather
TTITLE8=Knock three times
TTITLE9=Take me home country roads
TTITLE10=Gypsys, Tramps and Thieves
TTITLE11=She's a lady
TTITLE12=Rose garden
TTITLE13=If not for you
TTITLE14=Banks of the Ohio
TTITLE15=Indian Reservation
TTITLE16=Joy to the world
TTITLE17=Chirpy Chirpy Cheep
EXTD=
EXTT0=
EXTT1=
EXTT2=
EXTT3=
EXTT4=
EXTT5=
EXTT6=
EXTT7=
EXTT8=
EXTT9=
EXTT10=
EXTT11=
EXTT12=
EXTT13=
EXTT14=
EXTT15=
EXTT16=
EXTT17=
PLAYORDER=
